<?xml version="1.0" standalone="no"?>
<!DOCTYPE svg PUBLIC "-//W3C//DTD SVG 20010904//EN"
 "http://www.w3.org/TR/2001/REC-SVG-20010904/DTD/svg10.dtd">
<svg version="1.0" xmlns="http://www.w3.org/2000/svg"
 width="500.000000pt" height="499.000000pt" viewBox="0 0 500.000000 499.000000"
 preserveAspectRatio="xMidYMid meet">

<g transform="translate(0.000000,499.000000) scale(0.100000,-0.100000)"
fill="#000000" stroke="none">
<path d="M2423 2885 c-94 -17 -281 -82 -368 -129 -53 -29 -73 -34 -165 -40
-198 -13 -348 -51 -508 -128 -98 -48 -243 -142 -269 -175 -13 -16 -11 -38 9
-105 13 -45 15 -45 236 -54 194 -8 217 7 38 24 -68 7 -143 18 -167 25 -42 12
-44 15 -47 54 -3 37 1 44 43 80 60 51 207 124 342 169 109 37 219 53 375 54
54 0 81 6 135 31 248 114 401 141 665 120 154 -12 213 -25 368 -80 112 -40
223 -58 405 -66 210 -9 316 -37 383 -99 l24 -21 -7 40 c-12 70 -27 109 -59
152 -36 49 -48 56 -79 44 -12 -5 -63 -14 -114 -21 -182 -25 -438 4 -584 65
-117 50 -221 68 -404 71 -116 2 -196 -2 -252 -11z"/>
<path d="M1690 2330 c0 -143 1 -150 20 -150 19 0 20 7 20 150 0 143 -1 150
-20 150 -19 0 -20 -7 -20 -150z"/>
<path d="M1835 2466 c-6 -7 -30 -39 -53 -69 l-44 -56 57 -81 c45 -64 61 -80
82 -80 29 0 31 -6 -46 105 -35 50 -39 61 -28 74 7 9 32 40 56 69 l43 52 -29 0
c-15 0 -33 -6 -38 -14z"/>
<path d="M2531 2336 c-28 -79 -51 -147 -51 -150 0 -3 9 -6 20 -6 14 0 25 12
36 40 16 40 17 40 70 40 54 0 54 0 70 -40 11 -28 22 -40 36 -40 25 0 23 9 -39
177 -39 108 -48 123 -68 123 -20 0 -28 -16 -74 -144z m93 41 c32 -77 32 -77
-14 -77 -41 0 -42 1 -36 28 8 33 27 82 32 82 2 0 10 -15 18 -33z"/>
<path d="M3023 2443 c-7 -2 -13 -16 -13 -29 0 -15 -6 -24 -15 -24 -8 0 -15 -7
-15 -15 0 -8 7 -15 15 -15 12 0 15 -14 15 -68 0 -81 17 -112 61 -112 23 0 29
4 29 21 0 11 -4 18 -9 14 -5 -3 -17 2 -26 11 -12 12 -15 31 -13 73 3 49 6 56
26 59 12 2 22 10 22 17 0 7 -10 15 -22 17 -17 2 -24 11 -26 31 -3 27 -7 30
-29 20z"/>
<path d="M2228 2386 c-16 -9 -30 -11 -33 -5 -4 5 -13 9 -21 9 -12 0 -14 -27
-14 -155 0 -148 1 -155 20 -155 18 0 20 7 20 55 l0 55 45 -7 c57 -7 90 13 106
67 18 60 -1 117 -46 136 -42 17 -44 17 -77 0z m66 -42 c18 -18 21 -76 6 -105
-7 -13 -21 -19 -45 -19 -39 0 -55 20 -55 71 0 59 57 91 94 53z"/>
<path d="M3190 2382 c-44 -22 -62 -56 -56 -107 15 -122 187 -129 203 -8 7 56
-11 98 -52 117 -42 20 -52 20 -95 -2z m89 -35 c21 -26 24 -75 7 -102 -21 -32
-80 -36 -96 -6 -15 30 -12 82 7 103 19 21 66 24 82 5z"/>
<path d="M1920 2320 c0 -113 40 -160 112 -132 16 6 28 6 28 1 0 -5 9 -9 20 -9
19 0 20 7 20 105 0 98 -1 105 -20 105 -18 0 -20 -7 -20 -80 0 -78 -1 -80 -27
-86 -46 -12 -58 5 -61 90 -3 73 -4 76 -27 76 -24 0 -25 -2 -25 -70z"/>
<path d="M2760 2320 c0 -113 40 -160 112 -132 16 6 28 6 28 1 0 -5 9 -9 20 -9
19 0 20 7 20 105 0 98 -1 105 -20 105 -18 0 -20 -7 -20 -73 0 -81 -9 -97 -52
-97 -36 0 -48 28 -48 111 0 52 -2 59 -20 59 -18 0 -20 -7 -20 -70z"/>
</g>
</svg>
